<?xml version="1.0" standalone="no"?><!DOCTYPE svg PUBLIC "-//W3C//DTD SVG 1.1//EN" "http://www.w3.org/Graphics/SVG/1.1/DTD/svg11.dtd"><svg t="1630471189850" class="icon" viewBox="0 0 1024 1024" version="1.1" xmlns="http://www.w3.org/2000/svg" p-id="15507" width="32" height="32" xmlns:xlink="http://www.w3.org/1999/xlink"><defs><style type="text/css"></style></defs><path d="M512 1024C229.686018 1024 0 794.313982 0 512S229.686018 0 512 0 1024 229.686018 1024 512 794.313982 1024 512 1024zM512 46.972477C255.586642 46.972477 46.972477 255.586642 46.972477 512S255.586642 977.027523 512 977.027523 977.027523 768.413358 977.027523 512 768.413358 46.972477 512 46.972477z" p-id="15508"></path><path d="M539.431927 419.46422l36.826422-35.699083c-20.85578-20.386055-44.529908-41.241835-71.210275-62.37945l-36.920367 29.78055C491.70789 371.646239 515.475963 394.568807 539.431927 419.46422zM814.596697 537.271193l36.826422-32.411009c-22.734679-32.786789-49.790826-67.734312-81.074495-104.936514l-36.826422 28.277431C764.805872 466.906422 791.862018 503.169174 814.596697 537.271193zM232.325872 506.269358c18.413211 7.045872 34.759633 14.091743 49.133211 21.137615 21.23156-39.268991 40.866055-82.29578 58.997431-129.174312l-49.133211-17.943486C272.534312 430.26789 252.899817 472.261284 232.325872 506.269358zM222.555596 380.289174l49.133211 0 0-68.673761 510.966606 0 0 68.673761 49.133211 0L831.788624 262.576147 568.930642 262.576147c-12.776514-24.519633-26.774312-47.348257-41.805505-68.673761l-49.133211 23.110459c11.649174 15.782752 22.452844 31.001835 31.941284 45.563303L222.555596 262.576147 222.555596 380.289174zM782.655413 841.371009 782.655413 645.12l-49.133211 0L733.522202 762.833028 546.759633 762.833028 546.759633 615.715229l-49.133211 0L497.626422 762.833028 330.592294 762.833028 330.592294 645.12l-49.133211 0 0 166.752294 452.063119 0 0 29.498716L782.655413 841.371009zM218.234128 635.349725c60.030826-21.137615 118.652477-44.811743 176.052844-71.11633 13.809908 27.901651 39.456881 41.617615 76.659083 41.617615l146.929908 0c45.469358 0 72.807339-19.258716 81.826055-57.870092 2.912294-10.42789 7.703486-33.726239 14.091743-70.082936-18.507156-6.576147-34.947523-13.058349-49.133211-19.164771-3.006239 34.383853-7.139817 59.185321-12.682569 74.498349-5.260917 15.782752-20.573945 23.580183-46.126972 23.580183L483.064954 556.811743c-17.379817 0-30.438165-4.227523-39.268991-12.964404 104.654679-47.348257 204.518165-102.681835 299.496514-166.000734l-31.001835-36.826422c-91.22055 61.909725-185.635229 114.706789-283.431927 158.203303L428.858716 370.424954l-49.133211 0 0 144.769174c-61.06422 28.747156-123.44367 53.266789-186.668624 73.558899C202.545321 603.40844 210.812477 618.909358 218.234128 635.349725z" p-id="15509"></path></svg>